<svg width="16" height="15" viewBox="0 0 16 15" fill="none" xmlns="http://www.w3.org/2000/svg">
<path d="M11.6986 0C8.8494 0 7.80256 2.91035 7.80256 2.91035C7.80256 2.91035 6.77002 0 3.89998 0C1.74388 0 -0.713927 1.70876 0.19377 5.59313C1.10147 9.4775 7.80906 14.3164 7.80906 14.3164C7.80906 14.3164 14.492 9.4775 15.4009 5.59313C16.3086 1.70876 14.0277 0 11.6986 0Z" fill="#FAB100"/>
<path d="M3.46048 0.289995C5.69722 0.289995 6.80778 2.69448 7.1667 3.6685C7.21741 3.80765 7.41118 3.81155 7.4697 3.6763L7.7974 2.91165C7.33575 1.43567 6.06654 0 3.90003 0C3.00273 0 2.05472 0.296497 1.31738 0.922002C1.9689 0.494162 2.73225 0.289995 3.46048 0.289995Z" fill="#FAB100"/>
<path d="M11.6987 0C11.0107 0 10.4281 0.200265 9.93918 0.500664C10.2825 0.36802 10.6622 0.289995 11.0836 0.289995C13.1915 0.289995 15.0785 1.88822 14.2267 5.58273C13.4958 8.75447 9.22525 12.6024 7.92092 14.0706C7.83769 14.1642 7.80908 14.3151 7.80908 14.3151C7.80908 14.3151 14.492 9.4762 15.401 5.59183C16.3087 1.70876 13.8535 0 11.6987 0Z" fill="#FAB100"/>
<path d="M1.69034 2.06117C2.178 1.45257 3.04928 0.949308 3.78792 1.5293C4.18715 1.8427 4.0129 2.48511 3.65528 2.7556C3.13511 3.15093 2.68256 3.38891 2.36526 4.00791C2.17539 4.37983 2.06096 4.78686 2.00244 5.2017C1.97903 5.36555 1.76446 5.40587 1.68383 5.26152C1.13505 4.2888 0.979003 2.94936 1.69034 2.06117Z" fill="#FAB100"/>
<path d="M9.50929 3.34072C9.28042 3.34072 9.11916 3.11965 9.20239 2.90638C9.35714 2.51365 9.55741 2.13393 9.79798 1.79582C10.1543 1.29645 10.8318 1.00516 11.261 1.30816C11.7005 1.61766 11.6433 2.23666 11.3351 2.53576C10.6719 3.17687 9.8383 3.34072 9.50929 3.34072Z" fill="#FAB100"/>
</svg>
