<svg width="34" height="34" viewBox="0 0 34 34" fill="none" xmlns="http://www.w3.org/2000/svg">
<path d="M11.8716 17L15.2857 20.4283L22.1282 13.5717" stroke="#FAB100" stroke-width="1.5" stroke-linecap="round" stroke-linejoin="round"/>
<path d="M15.2291 3.47087C16.2066 2.63504 17.8074 2.63504 18.7991 3.47087L21.0374 5.39754C21.4624 5.76587 22.2557 6.06337 22.8224 6.06337H25.2307C26.7324 6.06337 27.9649 7.29587 27.9649 8.79754V11.2059C27.9649 11.7584 28.2624 12.5659 28.6307 12.9909L30.5574 15.2292C31.3932 16.2067 31.3932 17.8075 30.5574 18.7992L28.6307 21.0375C28.2624 21.4625 27.9649 22.2559 27.9649 22.8225V25.2309C27.9649 26.7325 26.7324 27.965 25.2307 27.965H22.8224C22.2699 27.965 21.4624 28.2625 21.0374 28.6309L18.7991 30.5575C17.8216 31.3934 16.2207 31.3934 15.2291 30.5575L12.9907 28.6309C12.5657 28.2625 11.7724 27.965 11.2057 27.965H8.75491C7.25325 27.965 6.02075 26.7325 6.02075 25.2309V22.8084C6.02075 22.2559 5.72325 21.4625 5.36908 21.0375L3.45658 18.785C2.63492 17.8075 2.63492 16.2209 3.45658 15.2434L5.36908 12.9909C5.72325 12.5659 6.02075 11.7725 6.02075 11.22V8.78337C6.02075 7.2817 7.25325 6.0492 8.75491 6.0492H11.2057C11.7582 6.0492 12.5657 5.7517 12.9907 5.38337L15.2291 3.47087Z" stroke="#FAB100" stroke-width="1.5" stroke-linecap="round" stroke-linejoin="round"/>
</svg>
