<svg width="38" height="38" viewBox="0 0 38 38" fill="none" xmlns="http://www.w3.org/2000/svg">
<path d="M32.2153 5.61617C28.6861 2.07865 23.9863 0.132874 18.9914 0.132874C8.68186 0.132874 0.292691 8.52213 0.292691 18.8315C0.292691 22.1247 1.15189 25.3423 2.78595 28.1808L0.132812 37.8671L10.0465 35.2644C12.7755 36.7551 15.8497 37.5386 18.983 37.5386H18.9915C29.2926 37.5386 37.8669 29.1494 37.8669 18.84C37.8669 13.8452 35.7445 9.15377 32.2153 5.61617Z" fill="#2CB742"/>
<path d="M18.9913 34.3885C16.195 34.3885 13.4575 33.6389 11.0738 32.2238L10.5096 31.8869L4.63037 33.4282L6.19709 27.6923L5.82647 27.1027C4.26829 24.6264 3.45117 21.7711 3.45117 18.8315C3.45117 10.2655 10.4253 3.2915 18.9998 3.2915C23.1521 3.2915 27.0518 4.90867 29.9831 7.84818C32.9142 10.7878 34.7167 14.6876 34.7084 18.84C34.7084 27.4146 27.5572 34.3885 18.9913 34.3885Z" fill="#EBEBEB"/>
<path d="M27.5151 22.7481C27.0519 22.5125 24.7525 21.3835 24.3229 21.2321C23.8933 21.072 23.5818 20.9963 23.2702 21.468C22.9585 21.9396 22.0657 22.9839 21.7876 23.3041C21.5181 23.6158 21.2401 23.6579 20.7769 23.422C18.0311 22.0492 16.2287 20.9711 14.4178 17.8629C13.9376 17.0375 14.898 17.0964 15.7906 15.3109C15.9424 14.9991 15.8666 14.7297 15.7485 14.4938C15.6307 14.258 14.6957 11.9586 14.3082 11.0236C13.9293 10.1139 13.5418 10.2403 13.2554 10.2234C12.9859 10.2065 12.6741 10.2065 12.3626 10.2065C12.0509 10.2065 11.5456 10.3245 11.116 10.7877C10.6865 11.2594 9.48193 12.3882 9.48193 14.6876C9.48193 16.987 11.158 19.2107 11.3855 19.5223C11.6212 19.8338 14.6789 24.5507 19.3702 26.5806C22.3352 27.8609 23.4975 27.9702 24.98 27.7513C25.8811 27.6165 27.7427 26.6226 28.1301 25.5277C28.5175 24.4328 28.5175 23.498 28.3996 23.3042C28.2901 23.0934 27.9783 22.9756 27.5151 22.7481Z" fill="#2CB742"/>
</svg>
